<?xml version="1.0"?>
<svg xmlns="http://www.w3.org/2000/svg" xmlns:xlink="http://www.w3.org/1999/xlink" version="1.1" id="Capa_1" x="0px" y="0px" viewBox="0 0 457.307 457.307" style="enable-background:new 0 0 457.307 457.307;" xml:space="preserve" width="512px" height="512px" class=""><g><path id="XMLID_886_" d="M380.018,322.818l-78.81-43.089v-90.035c0-0.04-0.006-0.078-0.006-0.118  c-0.017-2.196-0.533-4.534-1.623-6.681L243.654,72.91v-27.93h2.64c5.464,0,9.893-4.429,9.893-9.893V24.872  c0-5.464-4.429-9.893-9.893-9.893h-2.64V9.893c0-5.464-4.429-9.893-9.893-9.893h-10.214c-5.464,0-9.893,4.429-9.893,9.893v5.087  h-2.641c-5.464,0-9.893,4.429-9.893,9.893v10.214c0,5.464,4.429,9.893,9.893,9.893h2.641v27.931l-55.925,109.985  c-0.983,1.931-1.604,4.259-1.623,6.68c0,0.04-0.006,0.079-0.006,0.119v90.036l-78.811,43.088c-4.812,2.631-7.804,7.678-7.804,13.161  v106.327c0,8.284,6.716,15,15,15h110.84v-63.944c0-18.688,15.294-34.338,33.978-33.98c18.107,0.346,32.679,15.132,32.679,33.322  v64.602h110.84c8.284,0,15-6.716,15-15V335.979C387.822,330.496,384.829,325.449,380.018,322.818z M228.653,257.157  c-18.629,0-33.731-15.102-33.731-33.732s15.102-33.731,33.731-33.731c18.63,0,33.732,15.102,33.732,33.731  S247.283,257.157,228.653,257.157z" data-original="#000000" class="active-path" data-old_color="#000000" fill="#FFFFFF"/></g> </svg>
