<?xml version="1.0"?>
<svg xmlns="http://www.w3.org/2000/svg" height="512px" viewBox="0 0 64 64" width="512px"><g><g id="Computer"><path d="m60 40h-56v5a3 3 0 0 0 3 3h50a3 3 0 0 0 3-3zm-28 7a3 3 0 1 1 3-3 3 3 0 0 1 -3 3z" data-original="#000000" class="active-path" data-old_color="#000000" fill="#FFFFFF"/><circle cx="32" cy="44" r="1" data-original="#000000" class="active-path" data-old_color="#000000" fill="#FFFFFF"/><path d="m46 59a1 1 0 0 0 -1-1h-26a1 1 0 0 0 -1 1v1h28z" data-original="#000000" class="active-path" data-old_color="#000000" fill="#FFFFFF"/><path d="m60 7a3 3 0 0 0 -3-3h-50a3 3 0 0 0 -3 3v31h56z" data-original="#000000" class="active-path" data-old_color="#000000" fill="#FFFFFF"/><path d="m25.693 50-2.25 6h17.114l-2.25-6z" data-original="#000000" class="active-path" data-old_color="#000000" fill="#FFFFFF"/></g></g> </svg>
